<svg xmlns="http://www.w3.org/2000/svg" width="1038.027" height="1333.046" viewBox="0 0 1038.027 1333.046">
  <g id="Group_19" data-name="Group 19" transform="translate(0.497 0.518)" opacity="0.214">
    <path id="Stroke_1" data-name="Stroke 1" d="M803.4,291.57c-6.669-41.634-.515-84.189-2.334-126.313S787.253,77.975,753.783,52.346C707.98,17.271,642.717,31.833,587.677,49.1s-118.65,34.7-167.148,3.463C392.042,34.215,218.92-50.972,136.321,44.386c-34.809,40.186-70.844,84.377-70.514,137.548.3,47.375,24.526,91.209,32.378,137.929,14.559,86.622-27.66,171.2-61.078,252.429S-20.63,750.691,25.36,825.518C75.431,906.989,194.241,935.082,225.6,1025.425c17.149,49.4,2.407,104.4,12.444,155.722,15.545,79.488,91.812,138.184,172.088,148.765s161.7-20.146,227.166-67.8,117.389-111.244,167.549-174.825c69.591-88.21,137.544-178.217,193.026-275.923q.631-1.11,1.257-2.22a292.924,292.924,0,0,0-60.8-363.237S810.071,333.2,803.4,291.57Z" fill="none" stroke="#0072ce" stroke-miterlimit="10" stroke-width="1"/>
    <path id="Stroke_3" data-name="Stroke 3" d="M418.258,1284a222.721,222.721,0,0,1-29-1.882,194.7,194.7,0,0,1-98.107-43.186c-28.713-23.986-47.257-53.882-53.627-86.455-3.91-19.991-3.589-41.229-3.249-63.712.471-31.2.958-63.463-10.071-95.235-19.724-56.82-67.447-90.6-113.6-123.27-35.379-25.044-68.8-48.7-88.82-81.281C-11.181,735.342-6.769,659.592,35.269,557.4c3.757-9.131,7.72-18.53,11.553-27.619C78.794,453.969,111.854,375.574,97.8,291.959c-3.488-20.756-9.781-40.465-15.866-59.525-8.24-25.811-16.023-50.19-16.175-74.569-.268-43.219,29.128-80.7,64.667-121.731C151.194,12.157,181.644,0,220.932,0,292.439,0,368.582,39.079,383.6,48.753,405.283,62.722,431.252,69.8,460.787,69.8c37.379,0,74.838-10.771,110-21.8,25.421-7.976,58.429-17.131,88.274-17.131,23.23,0,41.592,5.413,56.134,16.548,11.9,9.11,21.2,22.461,27.661,39.684,5.914,15.768,9.37,34.363,10.272,55.269.659,15.287.211,30.612-.264,46.838-.783,26.7-1.591,54.314,2.876,82.2,2.5,15.628,13.463,41.772,76.528,105.758,32.873,33.354,64.4,61.142,66.165,62.691a268.78,268.78,0,0,1,55.789,333.5l-1.232,2.176c-51.805,91.235-113.809,175.069-190.968,272.876C711.489,1112.473,661.01,1173.7,599.2,1218.693,541.356,1260.806,477.092,1284,418.262,1284Z" transform="translate(24 24)" fill="none" stroke="#0072ce" stroke-miterlimit="10" stroke-width="1"/>
    <path id="Stroke_5" data-name="Stroke 5" d="M385.873,1219a190.344,190.344,0,0,1-24.808-1.608,162.2,162.2,0,0,1-81.74-36.016c-23.009-19.227-37.783-42.758-42.726-68.047-3.266-16.706-2.971-36.3-2.657-57.054.488-32.351,1.041-69.013-11.812-106.055-23.043-66.4-77.267-104.8-125.108-138.676-32.6-23.084-63.388-44.886-79.973-71.885C3.96,718.355-1.5,692.525.351,660.7c2.008-34.483,12.936-76.067,32.481-123.6,3.723-9.056,7.641-18.346,11.428-27.329,16.256-38.561,33.062-78.429,44.122-120.059,13.006-48.959,15.9-93.17,8.844-135.159C93.368,231.581,86.734,210.8,80.32,190.7c-7.8-24.428-14.527-45.517-14.649-65.017-.2-32.092,25.611-64.532,56.81-100.567C137.111,8.214,158.812,0,188.825,0c64.036,0,134.081,36.456,145.218,43.634,26.872,17.316,58.6,26.1,94.295,26.1,41.821,0,81.9-11.48,119.361-23.24,23.222-7.289,53.146-15.654,78.633-15.654,16.17,0,27.84,3.17,36.725,9.977,7.074,5.42,12.854,14.017,17.179,25.552,4.725,12.6,7.5,27.88,8.26,45.406.609,14.118.177,28.867-.279,44.483-.825,28.147-1.678,57.254,3.258,88.083,3.623,22.636,16.45,53.2,85.174,122.952,32.9,33.393,63.927,60.845,67.657,64.129a236.734,236.734,0,0,1,49.084,293.646l-1.214,2.143c-50.724,89.366-111.839,172-187.991,268.563-49.035,62.18-97.89,121.518-156.338,164.083C495.475,1198,437.952,1219,385.874,1219Z" transform="translate(58 58)" fill="none" stroke="#0072ce" stroke-miterlimit="10" stroke-width="1"/>
    <path id="Stroke_7" data-name="Stroke 7" d="M356.222,1124a176.026,176.026,0,0,1-22.9-1.482,149.832,149.832,0,0,1-75.46-33.21c-21.24-17.729-34.878-39.425-39.443-62.744-3.015-15.4-2.742-33.476-2.453-52.607.45-29.83.962-63.634-10.905-97.789C183.789,814.94,133.732,779.535,89.566,748.3c-30.094-21.286-58.516-41.389-73.828-66.283C3.655,662.372-1.386,638.555.324,609.206c1.853-31.8,11.941-70.139,29.985-113.964,3.438-8.35,7.054-16.916,10.55-25.2,15.008-35.556,30.522-72.316,40.732-110.7C93.6,314.2,96.268,273.432,89.756,234.716c-3.563-21.182-9.686-40.348-15.608-58.882-7.2-22.524-13.411-41.97-13.524-59.949-.183-29.592,23.643-59.5,52.444-92.729C126.576,7.574,146.609,0,174.316,0c59.116,0,123.778,33.616,134.059,40.233C333.183,56.2,362.47,64.3,395.425,64.3c38.607,0,75.6-10.586,110.19-21.429,21.437-6.72,49.062-14.434,72.591-14.434,14.927,0,25.7,2.923,33.9,9.2,6.531,5,11.867,12.925,15.859,23.561,4.362,11.621,6.928,25.707,7.626,41.867.562,13.018.163,26.617-.258,41.016-.761,25.954-1.549,52.791,3.009,81.219,3.344,20.871,15.185,49.052,78.629,113.371,30.372,30.79,59.014,56.1,62.459,59.13a218.091,218.091,0,0,1,45.312,270.762l-1.12,1.976c-46.827,82.4-103.246,158.592-173.547,247.632-45.267,57.334-90.368,112.048-144.324,151.3C457.4,1104.631,404.3,1124,356.224,1124Z" transform="translate(100 105)" fill="none" stroke="#0072ce" stroke-miterlimit="10" stroke-width="1"/>
    <path id="Stroke_9" data-name="Stroke 9" d="M299.844,949a147.622,147.622,0,0,1-19.277-1.251A125.937,125.937,0,0,1,217.05,919.71c-17.878-14.968-29.359-33.287-33.2-52.976-2.537-13.006-2.308-28.263-2.064-44.418.379-25.185.809-53.727-9.179-82.564-17.905-51.694-60.041-81.586-97.216-107.96-25.33-17.972-49.256-34.945-62.143-55.963C3.077,559.245-1.167,539.136.273,514.357c1.56-26.847,10.051-59.219,25.239-96.221,2.894-7.051,5.938-14.283,8.88-21.276,12.631-30.02,25.691-61.057,34.285-93.466,10.107-38.115,12.355-72.535,6.873-105.222-3-17.884-8.153-34.066-13.137-49.715-6.059-19.017-11.289-35.435-11.383-50.615C50.875,72.857,70.93,47.6,95.174,19.55,106.543,6.394,123.406,0,146.728,0c49.76,0,104.189,28.381,112.842,33.968C280.452,47.45,305.1,54.285,332.842,54.285c32.5,0,63.639-8.937,92.751-18.092,18.044-5.675,41.3-12.187,61.1-12.187,12.565,0,21.633,2.468,28.537,7.768,5.5,4.219,9.989,10.912,13.349,19.892,3.672,9.812,5.832,21.7,6.419,35.349.473,10.991.138,22.473-.217,34.63-.641,21.913-1.3,44.572,2.532,68.573,2.815,17.622,12.782,41.416,66.185,95.72,25.565,26,49.675,47.368,52.574,49.924a184.555,184.555,0,0,1,38.141,228.606l-.943,1.668c-39.416,69.573-86.906,133.9-146.08,209.079-38.1,48.407-76.066,94.6-121.484,127.74C385.011,932.647,340.312,949,299.846,949Z" transform="translate(189 163)" fill="none" stroke="#0072ce" stroke-miterlimit="10" stroke-width="1"/>
    <path id="Stroke_11" data-name="Stroke 11" d="M248.061,781a122.739,122.739,0,0,1-15.948-1.03A104.448,104.448,0,0,1,179.565,756.9c-14.791-12.319-24.288-27.394-27.466-43.6-2.1-10.7-1.909-23.26-1.708-36.554.314-20.727.67-44.215-7.593-67.948-14.813-42.543-49.672-67.144-80.427-88.848-20.957-14.79-40.749-28.759-51.411-46.056C2.546,460.242-.965,443.694.226,423.3c1.291-22.093,8.316-48.735,20.881-79.187,2.393-5.8,4.912-11.754,7.346-17.509C38.9,301.9,49.707,276.357,56.817,249.684c8.361-31.367,10.221-59.693,5.686-86.594-2.48-14.718-6.745-28.035-10.869-40.913-5.011-15.651-9.338-29.163-9.417-41.656C42.09,59.96,58.681,39.177,78.738,16.09,88.143,5.264,102.094,0,121.388,0c41.165,0,86.195,23.358,93.354,27.956,17.275,11.094,37.67,16.719,60.618,16.719,26.886,0,52.648-7.355,76.733-14.89,14.928-4.67,34.165-10.029,50.549-10.029,10.395,0,17.9,2.031,23.61,6.393,4.547,3.472,8.263,8.981,11.043,16.371,3.038,8.074,4.825,17.863,5.31,29.091.391,9.046.114,18.5-.179,28.5-.53,18.033-1.079,36.681,2.1,56.433,2.328,14.5,10.574,34.084,54.754,78.775,21.149,21.394,41.1,38.983,43.494,41.087a151.29,151.29,0,0,1,31.553,188.136l-.781,1.373c-32.608,57.256-71.9,110.2-120.851,172.065-31.522,39.838-62.93,77.855-100.5,105.126C318.52,767.542,281.541,781,248.062,781Z" transform="translate(268 216)" fill="none" stroke="#0072ce" stroke-miterlimit="10" stroke-width="1"/>
    <path id="Stroke_13" data-name="Stroke 13" d="M210.059,664a103.468,103.468,0,0,1-13.5-.876,88.271,88.271,0,0,1-44.5-19.618c-12.525-10.473-20.567-23.29-23.259-37.066-1.778-9.1-1.617-19.775-1.446-31.077.266-17.623.567-37.592-6.43-57.769-12.543-36.169-42.061-57.085-68.106-75.538C35.07,429.48,18.31,417.606,9.281,402.9c-7.125-11.6-10.1-25.674-9.09-43.012,1.093-18.783,7.042-41.434,17.683-67.324,2.027-4.933,4.159-9.993,6.221-14.886,8.849-21.006,18-42.721,24.019-65.4,7.08-26.668,8.655-50.75,4.815-73.622-2.1-12.512-5.712-23.835-9.2-34.783C39.48,90.568,35.816,79.08,35.75,68.459,35.641,50.977,49.691,33.307,66.675,13.68,74.64,4.474,86.453,0,102.792,0c34.859,0,72.989,19.858,79.052,23.768,14.628,9.432,31.9,14.215,51.331,14.215,22.766,0,44.583-6.253,64.977-12.659,12.641-3.969,28.93-8.527,42.8-8.527,8.8,0,15.155,1.727,19.992,5.434,3.851,2.953,7,7.636,9.351,13.919,2.573,6.865,4.085,15.187,4.5,24.733.331,7.69.1,15.724-.152,24.23-.449,15.332-.914,31.187,1.774,47.98,1.973,12.33,8.954,28.977,46.367,66.973,17.909,18.189,34.8,33.143,36.83,34.931A129.007,129.007,0,0,1,486.336,394.95l-.661,1.167c-27.612,48.678-60.882,93.688-102.336,146.288-26.694,33.871-53.288,66.192-85.106,89.377C269.723,652.558,238.409,664,210.059,664Z" transform="translate(326 254)" fill="none" stroke="#0072ce" stroke-miterlimit="10" stroke-width="1"/>
    <path id="Stroke_15" data-name="Stroke 15" d="M167.044,527a82.488,82.488,0,0,1-10.739-.7,70.265,70.265,0,0,1-35.385-15.57c-9.961-8.313-16.356-18.486-18.5-29.419-1.414-7.222-1.285-15.695-1.149-24.665.212-13.986.451-29.835-5.114-45.85C86.185,382.094,62.712,365.494,42,350.848c-14.112-9.98-27.44-19.406-34.62-31.078C1.715,310.56-.65,299.393.152,285.633c.869-14.908,5.6-32.886,14.061-53.434,1.613-3.915,3.308-7.93,4.948-11.814,7.037-16.67,14.312-33.906,19.1-51.9,5.631-21.167,6.883-40.28,3.829-58.432-1.671-9.932-4.542-18.918-7.32-27.607C31.4,71.88,28.482,62.763,28.43,54.334c-.087-13.875,11.086-27.9,24.592-43.478C59.356,3.551,68.75,0,81.742,0c27.721,0,58.044,15.76,62.865,18.863,11.633,7.486,25.367,11.282,40.82,11.282,18.1,0,35.454-4.964,51.672-10.047,10.052-3.151,23.006-6.768,34.039-6.768,7,0,12.052,1.371,15.9,4.314,3.063,2.343,5.565,6.06,7.437,11.046a64.155,64.155,0,0,1,3.576,19.63c.263,6.1.076,12.48-.121,19.232-.357,12.168-.728,24.751,1.41,38.08,1.568,9.787,7.121,23,36.871,53.156,14.242,14.436,27.674,26.3,29.289,27.724a102.242,102.242,0,0,1,21.248,126.95l-.525.927c-21.959,38.634-48.415,74.357-81.382,116.105-21.228,26.882-42.376,52.535-67.678,70.936C214.491,517.919,189.59,527,167.045,527Z" transform="translate(395 290)" fill="none" stroke="#0072ce" stroke-miterlimit="10" stroke-width="1"/>
    <path id="Stroke_17" data-name="Stroke 17" d="M98.974,311a48.994,48.994,0,0,1-6.363-.411A41.7,41.7,0,0,1,71.645,301.4c-5.9-4.905-9.691-10.908-10.959-17.361-.838-4.262-.762-9.262-.682-14.556.126-8.254.267-17.607-3.029-27.057-5.911-16.941-19.819-26.737-32.09-35.38-8.361-5.889-16.258-11.452-20.513-18.339C1.016,183.272-.385,176.683.09,168.562c.515-8.8,3.318-19.408,8.331-31.533.955-2.311,1.96-4.681,2.931-6.973,4.169-9.838,8.48-20.009,11.317-30.63,3.336-12.491,4.078-23.771,2.268-34.483A115.388,115.388,0,0,0,20.6,48.652c-2-6.232-3.726-11.612-3.757-16.588C16.794,23.876,23.413,15.6,31.416,6.407,35.169,2.1,40.735,0,48.433,0,64.857,0,82.823,9.3,85.68,11.132a44.027,44.027,0,0,0,24.186,6.658c10.726,0,21.006-2.928,30.615-5.929,5.957-1.86,13.631-3.994,20.168-3.994,4.147,0,7.141.809,9.42,2.545a14.329,14.329,0,0,1,4.406,6.518A37.72,37.72,0,0,1,176.6,28.516c.156,3.6.045,7.365-.072,11.348-.212,7.182-.431,14.608.835,22.473.929,5.775,4.22,13.573,21.846,31.368,8.439,8.519,16.4,15.523,17.353,16.361a60.156,60.156,0,0,1,12.59,74.917l-.312.547c-13.01,22.8-28.686,43.88-48.218,68.517-12.577,15.864-25.107,31-40.1,41.862C127.086,305.641,112.332,311,98.974,311Z" transform="translate(493 364)" fill="none" stroke="#0072ce" stroke-miterlimit="10" stroke-width="1"/>
  </g>
</svg>
