<svg id="icon_savings" data-name="icon/savings" xmlns="http://www.w3.org/2000/svg" width="70" height="70" viewBox="0 0 70 70">
  <rect id="Rectangle" width="70" height="70" fill="none"/>
  <circle id="Oval" cx="19" cy="19" r="19" transform="translate(16 16)" fill="#fff"/>
  <path id="_" data-name="$" d="M5.232,20.04v-1.2A8.964,8.964,0,0,1,.7,17.28,1.669,1.669,0,0,1,0,15.936a1.567,1.567,0,0,1,2.472-1.3,6.626,6.626,0,0,0,2.759,1.152V12.024c-2.471-.6-5.16-1.56-5.16-4.8,0-2.448,1.944-4.513,5.16-4.824V1.128a1.14,1.14,0,0,1,2.281,0v1.32a8.33,8.33,0,0,1,3.6,1.2A1.617,1.617,0,0,1,11.9,5.016,1.6,1.6,0,0,1,10.32,6.6,1.551,1.551,0,0,1,9.5,6.36,6.293,6.293,0,0,0,7.512,5.52V8.88c2.5.648,5.256,1.607,5.256,4.872,0,2.64-1.728,4.7-5.256,5.064V20.04a1.14,1.14,0,0,1-2.281,0Z" transform="translate(29 24)" fill="#0072ce"/>
</svg>
