<svg id="icon_safety" data-name="icon/safety" xmlns="http://www.w3.org/2000/svg" xmlns:xlink="http://www.w3.org/1999/xlink" width="70" height="70" viewBox="0 0 70 70">
  <defs>
    <clipPath id="clip-path">
      <path id="Clip_2" data-name="Clip 2" d="M0,0H31.557V36.1H0Z" transform="translate(0 0.895)" fill="none"/>
    </clipPath>
  </defs>
  <rect id="Rectangle" width="70" height="70" fill="none"/>
  <g id="Group_6" data-name="Group 6" transform="translate(19 16)">
    <g id="Group_3" data-name="Group 3" transform="translate(0 0.105)">
      <path id="Clip_2-2" data-name="Clip 2" d="M0,0H31.557V36.1H0Z" transform="translate(0 0.895)" fill="none"/>
      <g id="Group_3-2" data-name="Group 3" clip-path="url(#clip-path)">
        <path id="Fill_1" data-name="Fill 1" d="M15.874,36.1,7.39,29.822A16.217,16.217,0,0,1,1.258,18.779L0,5.053,15.375,0h.808L31.557,5.053,30.3,18.779a16.179,16.179,0,0,1-6.073,11Z" transform="translate(0 0.895)" fill="#fff"/>
      </g>
    </g>
    <path id="Fill_4" data-name="Fill 4" d="M5.418,11.4,1.224,8.438A1.5,1.5,0,0,1,.866,6.347h0a1.5,1.5,0,0,1,2.091-.359l1.982,1.4,5.469-6.262A1.5,1.5,0,0,1,12.524.986h0A1.5,1.5,0,0,1,12.667,3.1Z" transform="translate(9.084 11.068)" fill="#0072ce"/>
  </g>
</svg>
