<svg xmlns="http://www.w3.org/2000/svg" width="421" height="377.5" viewBox="0 0 421 377.5">
  <g id="img-1" transform="translate(0 -0.5)">
    <g id="Group_18" data-name="Group 18" transform="translate(23 20)">
      <g id="Group_10" data-name="Group 10">
        <path id="Path_2" data-name="Path 2" d="M0,0,94,163" transform="translate(189 171)" fill="none" stroke="#707070" stroke-miterlimit="10" stroke-width="2"/>
        <path id="Path_3" data-name="Path 3" d="M96,0,0,167" transform="translate(92 168)" fill="none" stroke="#707070" stroke-miterlimit="10" stroke-width="2"/>
        <path id="Path_4" data-name="Path 4" d="M0,.5H187" transform="translate(188 166.5)" fill="none" stroke="#707070" stroke-miterlimit="10" stroke-width="2"/>
        <path id="Path_5" data-name="Path 5" d="M0,164,95,0" transform="translate(188 3)" fill="none" stroke="#707070" stroke-miterlimit="10" stroke-width="2"/>
        <path id="Path_6" data-name="Path 6" d="M98,167,0,0" transform="translate(89)" fill="none" stroke="#707070" stroke-miterlimit="10" stroke-width="2"/>
        <path id="Path_7" data-name="Path 7" d="M187,0,0,1" transform="translate(0 168)" fill="none" stroke="#707070" stroke-miterlimit="10" stroke-width="2"/>
      </g>
      <g id="Group_2" data-name="Group 2" transform="translate(133 113)">
        <path id="Fill_32" data-name="Fill 32" d="M109.159,55.686c0,30.754-24.437,55.686-54.58,55.686S0,86.44,0,55.686,24.437,0,54.579,0s54.58,24.931,54.58,55.686" transform="translate(0 0)" fill="#0072ce"/>
        <path id="Fill_20" data-name="Fill 20" d="M.5,1.869a3.6,3.6,0,0,1,5-1.357A3.825,3.825,0,0,1,6.814,5.658a3.6,3.6,0,0,1-5,1.357A3.825,3.825,0,0,1,.5,1.869" transform="translate(41.579 65.525)" fill="#fff"/>
        <path id="Fill_22" data-name="Fill 22" d="M.464,1.745A3.359,3.359,0,0,1,5.128.477a3.571,3.571,0,0,1,1.231,4.8A3.357,3.357,0,0,1,1.7,6.548a3.57,3.57,0,0,1-1.231-4.8" transform="translate(24.556 69.221)" fill="#fff"/>
        <path id="Fill_25" data-name="Fill 25" d="M.464,1.745A3.359,3.359,0,0,1,5.129.477a3.572,3.572,0,0,1,1.231,4.8A3.358,3.358,0,0,1,1.7,6.548a3.57,3.57,0,0,1-1.231-4.8" transform="translate(76.357 69.221)" fill="#fff"/>
        <path id="Fill_27" data-name="Fill 27" d="M.531,1.994A3.837,3.837,0,0,1,5.862.547,4.079,4.079,0,0,1,7.268,6.035,3.839,3.839,0,0,1,1.937,7.484,4.081,4.081,0,0,1,.531,1.994" transform="translate(32.702 53.459)" fill="#fff"/>
        <path id="Fill_29" data-name="Fill 29" d="M.53,1.994A3.837,3.837,0,0,1,5.862.547,4.079,4.079,0,0,1,7.268,6.035,3.838,3.838,0,0,1,1.937,7.484,4.081,4.081,0,0,1,.53,1.994" transform="translate(67.236 53.459)" fill="#fff"/>
        <path id="Fill_31" data-name="Fill 31" d="M.6,2.244a4.316,4.316,0,0,1,6-1.629A4.589,4.589,0,0,1,8.176,6.79a4.316,4.316,0,0,1-6,1.629A4.589,4.589,0,0,1,.6,2.244" transform="translate(40.848 37.697)" fill="#fff"/>
        <path id="Fill_33" data-name="Fill 33" d="M.6,2.244a4.317,4.317,0,0,1,6-1.629A4.59,4.59,0,0,1,8.176,6.79a4.316,4.316,0,0,1-6,1.629A4.589,4.589,0,0,1,.6,2.244" transform="translate(58.115 37.697)" fill="#fff"/>
        <path id="Fill_35" data-name="Fill 35" d="M.663,2.493A4.8,4.8,0,0,1,7.327.683,5.1,5.1,0,0,1,9.085,7.544a4.8,4.8,0,0,1-6.663,1.81A5.1,5.1,0,0,1,.663,2.493" transform="translate(48.994 21.934)" fill="#fff"/>
        <path id="Fill_38" data-name="Fill 38" d="M.5,1.869a3.6,3.6,0,0,1,5-1.357A3.825,3.825,0,0,1,6.814,5.658a3.6,3.6,0,0,1-5,1.357A3.825,3.825,0,0,1,.5,1.869" transform="translate(58.846 65.525)" fill="#fff"/>
      </g>
    </g>
    <circle id="Oval_Copy_7" data-name="Oval Copy 7" cx="18" cy="18" r="18" transform="translate(137 76)" fill="#fff"/>
    <path id="Fill_4" data-name="Fill 4" d="M6.831,13,1.369,9a1.744,1.744,0,0,1-.4-2.4h0a1.646,1.646,0,0,1,2.33-.39l3,2.212L12.39,1.283a1.648,1.648,0,0,1,2.352-.159h0a1.726,1.726,0,0,1,.163,2.407Z" transform="translate(147 87)" fill="#0072ce"/>
    <circle id="Oval_Copy_11" data-name="Oval Copy 11" cx="18" cy="18" r="18" transform="translate(248 76)" fill="#fff"/>
    <path id="Fill_4_Copy" data-name="Fill 4 Copy" d="M6.831,13,1.369,9a1.744,1.744,0,0,1-.4-2.4h0a1.646,1.646,0,0,1,2.33-.39l3,2.212L12.39,1.283a1.648,1.648,0,0,1,2.352-.159h0a1.726,1.726,0,0,1,.163,2.407Z" transform="translate(258 87)" fill="#0072ce"/>
    <circle id="Oval_Copy_12" data-name="Oval Copy 12" cx="18" cy="18" r="18" transform="translate(303 171)" fill="#fff"/>
    <path id="Fill_4_Copy_2" data-name="Fill 4 Copy 2" d="M6.831,13,1.369,9a1.744,1.744,0,0,1-.4-2.4h0a1.646,1.646,0,0,1,2.33-.39l3,2.212L12.39,1.283a1.648,1.648,0,0,1,2.352-.159h0a1.726,1.726,0,0,1,.163,2.407Z" transform="translate(313 182)" fill="#0072ce"/>
    <circle id="Oval_Copy_13" data-name="Oval Copy 13" cx="18" cy="18" r="18" transform="translate(80 171)" fill="#fff"/>
    <path id="Fill_4_Copy_3" data-name="Fill 4 Copy 3" d="M6.831,13,1.369,9a1.744,1.744,0,0,1-.4-2.4h0a1.646,1.646,0,0,1,2.33-.39l3,2.212L12.39,1.283a1.648,1.648,0,0,1,2.352-.159h0a1.726,1.726,0,0,1,.163,2.407Z" transform="translate(90 182)" fill="#0072ce"/>
    <circle id="Oval_Copy_14" data-name="Oval Copy 14" cx="18" cy="18" r="18" transform="translate(137 266)" fill="#fff"/>
    <path id="Fill_4_Copy_4" data-name="Fill 4 Copy 4" d="M6.831,13,1.369,9a1.744,1.744,0,0,1-.4-2.4h0a1.646,1.646,0,0,1,2.33-.39l3,2.212L12.39,1.283a1.648,1.648,0,0,1,2.352-.159h0a1.726,1.726,0,0,1,.163,2.407Z" transform="translate(147 277)" fill="#0072ce"/>
    <circle id="Oval_Copy_21" data-name="Oval Copy 21" cx="18" cy="18" r="18" transform="translate(248 266)" fill="#fff"/>
    <path id="Fill_4_Copy_5" data-name="Fill 4 Copy 5" d="M6.831,13,1.369,9a1.744,1.744,0,0,1-.4-2.4h0a1.646,1.646,0,0,1,2.33-.39l3,2.212L12.39,1.283a1.648,1.648,0,0,1,2.352-.159h0a1.726,1.726,0,0,1,.163,2.407Z" transform="translate(258 277)" fill="#0072ce"/>
    <circle id="Oval_Copy_15" data-name="Oval Copy 15" cx="23" cy="23" r="23" transform="translate(92 0.5)" fill="#00b2a9"/>
    <g id="person_copy" data-name="person copy" transform="translate(101 8)">
      <rect id="Rectangle" width="28.085" height="28.085" opacity="0"/>
      <path id="Path" d="M4.681,9.362A4.681,4.681,0,1,0,0,4.681,4.681,4.681,0,0,0,4.681,9.362Z" transform="translate(9.362 3.343)" fill="#fff"/>
      <path id="Path-2" data-name="Path" d="M15.523,9.362a1.182,1.182,0,0,0,1.194-1.17A8.276,8.276,0,0,0,8.359,0,8.276,8.276,0,0,0,0,8.191a1.182,1.182,0,0,0,1.194,1.17Z" transform="translate(6.018 15.38)" fill="#fff"/>
    </g>
    <circle id="Oval_Copy_16" data-name="Oval Copy 16" cx="23" cy="23" r="23" transform="translate(283 0.5)" fill="#00b2a9"/>
    <g id="person_copy_2" data-name="person copy 2" transform="translate(292 8)">
      <rect id="Rectangle-2" data-name="Rectangle" width="28.085" height="28.085" opacity="0"/>
      <path id="Path-3" data-name="Path" d="M4.681,9.362A4.681,4.681,0,1,0,0,4.681,4.681,4.681,0,0,0,4.681,9.362Z" transform="translate(9.362 3.343)" fill="#fff"/>
      <path id="Path-4" data-name="Path" d="M15.523,9.362a1.182,1.182,0,0,0,1.194-1.17A8.276,8.276,0,0,0,8.359,0,8.276,8.276,0,0,0,0,8.191a1.182,1.182,0,0,0,1.194,1.17Z" transform="translate(6.018 15.38)" fill="#fff"/>
    </g>
    <circle id="Oval_Copy_17" data-name="Oval Copy 17" cx="23" cy="23" r="23" transform="translate(375 166)" fill="#00b2a9"/>
    <g id="person_copy_3" data-name="person copy 3" transform="translate(384 173.5)">
      <rect id="Rectangle-3" data-name="Rectangle" width="28.085" height="28.085" opacity="0"/>
      <path id="Path-5" data-name="Path" d="M4.681,9.362A4.681,4.681,0,1,0,0,4.681,4.681,4.681,0,0,0,4.681,9.362Z" transform="translate(9.362 3.343)" fill="#fff"/>
      <path id="Path-6" data-name="Path" d="M15.523,9.362a1.182,1.182,0,0,0,1.194-1.17A8.276,8.276,0,0,0,8.359,0,8.276,8.276,0,0,0,0,8.191a1.182,1.182,0,0,0,1.194,1.17Z" transform="translate(6.018 15.38)" fill="#fff"/>
    </g>
    <circle id="Oval_Copy_18" data-name="Oval Copy 18" cx="23" cy="23" r="23" transform="translate(283 332)" fill="#00b2a9"/>
    <g id="person_copy_4" data-name="person copy 4" transform="translate(292 339.5)">
      <rect id="Rectangle-4" data-name="Rectangle" width="28.085" height="28.085" opacity="0"/>
      <path id="Path-7" data-name="Path" d="M4.681,9.362A4.681,4.681,0,1,0,0,4.681,4.681,4.681,0,0,0,4.681,9.362Z" transform="translate(9.362 3.343)" fill="#fff"/>
      <path id="Path-8" data-name="Path" d="M15.523,9.362a1.182,1.182,0,0,0,1.194-1.17A8.276,8.276,0,0,0,8.359,0,8.276,8.276,0,0,0,0,8.191a1.182,1.182,0,0,0,1.194,1.17Z" transform="translate(6.018 15.38)" fill="#fff"/>
    </g>
    <circle id="Oval_Copy_19" data-name="Oval Copy 19" cx="23" cy="23" r="23" transform="translate(92 332)" fill="#00b2a9"/>
    <g id="person_copy_5" data-name="person copy 5" transform="translate(101 339.5)">
      <rect id="Rectangle-5" data-name="Rectangle" width="28.085" height="28.085" opacity="0"/>
      <path id="Path-9" data-name="Path" d="M4.681,9.362A4.681,4.681,0,1,0,0,4.681,4.681,4.681,0,0,0,4.681,9.362Z" transform="translate(9.362 3.343)" fill="#fff"/>
      <path id="Path-10" data-name="Path" d="M15.523,9.362a1.182,1.182,0,0,0,1.194-1.17A8.276,8.276,0,0,0,8.359,0,8.276,8.276,0,0,0,0,8.191a1.182,1.182,0,0,0,1.194,1.17Z" transform="translate(6.018 15.38)" fill="#fff"/>
    </g>
    <circle id="Oval_Copy_20" data-name="Oval Copy 20" cx="23" cy="23" r="23" transform="translate(0 166)" fill="#00b2a9"/>
    <g id="person_copy_6" data-name="person copy 6" transform="translate(9 173.5)">
      <rect id="Rectangle-6" data-name="Rectangle" width="28.085" height="28.085" opacity="0"/>
      <path id="Path-11" data-name="Path" d="M4.681,9.362A4.681,4.681,0,1,0,0,4.681,4.681,4.681,0,0,0,4.681,9.362Z" transform="translate(9.362 3.343)" fill="#fff"/>
      <path id="Path-12" data-name="Path" d="M15.523,9.362a1.182,1.182,0,0,0,1.194-1.17A8.276,8.276,0,0,0,8.359,0,8.276,8.276,0,0,0,0,8.191a1.182,1.182,0,0,0,1.194,1.17Z" transform="translate(6.018 15.38)" fill="#fff"/>
    </g>
  </g>
</svg>
