<svg xmlns="http://www.w3.org/2000/svg" width="418.758" height="419.905" viewBox="0 0 418.758 419.905">
  <g id="img-3" transform="translate(-0.095)">
    <g id="Group_16" data-name="Group 16" transform="translate(0.06)">
      <g id="Group_22" data-name="Group 22" transform="translate(12.62)">
        <g id="Group_17" data-name="Group 17" transform="translate(0.034 11.473)">
          <ellipse id="Oval" cx="46.465" cy="198.48" rx="46.465" ry="198.48" transform="translate(152.589 0)" fill="none" stroke="#707070" stroke-miterlimit="10" stroke-width="2"/>
          <ellipse id="Oval-2" data-name="Oval" cx="46.465" cy="198.48" rx="46.465" ry="198.48" transform="translate(338.533 347.136) rotate(150)" fill="none" stroke="#707070" stroke-miterlimit="10" stroke-width="2"/>
          <ellipse id="Oval-3" data-name="Oval" cx="46.465" cy="198.48" rx="46.465" ry="198.48" transform="translate(258.054 3.359) rotate(30)" fill="none" stroke="#707070" stroke-miterlimit="10" stroke-width="2"/>
          <ellipse id="Oval-4" data-name="Oval" cx="46.465" cy="198.48" rx="46.465" ry="198.48" transform="translate(347.71 59) rotate(60)" fill="none" stroke="#707070" stroke-miterlimit="10" stroke-width="2"/>
          <ellipse id="Oval-5" data-name="Oval" cx="46.465" cy="198.48" rx="46.465" ry="198.48" transform="translate(397.533 152.015) rotate(90)" fill="none" stroke="#707070" stroke-miterlimit="10" stroke-width="2"/>
          <ellipse id="Oval-6" data-name="Oval" cx="46.465" cy="198.48" rx="46.465" ry="198.48" transform="translate(394.175 257.48) rotate(120)" fill="none" stroke="#707070" stroke-miterlimit="10" stroke-width="2"/>
        </g>
        <g id="Group_15" data-name="Group 15" transform="translate(13.862 98.666)">
          <path id="Fill_6_Copy" data-name="Fill 6 Copy" d="M22.946,11.473A11.473,11.473,0,1,1,11.473,0,11.473,11.473,0,0,1,22.946,11.473" transform="translate(346.479)" fill="#0072ce"/>
          <path id="Fill_6_Copy_5" data-name="Fill 6 Copy 5" d="M22.946,11.473A11.473,11.473,0,1,1,11.473,0,11.473,11.473,0,0,1,22.946,11.473" fill="#0072ce"/>
        </g>
        <g id="Group_13" data-name="Group 13" transform="translate(87.288 26.387)">
          <path id="Fill_6_Copy_2" data-name="Fill 6 Copy 2" d="M22.946,11.473A11.473,11.473,0,1,1,11.473,0,11.473,11.473,0,0,1,22.946,11.473" transform="translate(201.922)" fill="#0072ce"/>
          <path id="Fill_6_Copy_4" data-name="Fill 6 Copy 4" d="M22.946,11.473A11.473,11.473,0,1,1,11.473,0,11.473,11.473,0,0,1,22.946,11.473" fill="#0072ce"/>
        </g>
        <path id="Fill_6_Copy_3" data-name="Fill 6 Copy 3" d="M22.946,11.473A11.473,11.473,0,1,1,11.473,0,11.473,11.473,0,0,1,22.946,11.473" transform="translate(187.102)" fill="#0072ce"/>
      </g>
      <g id="Group_22_Copy" data-name="Group 22 Copy" transform="translate(0 419.905)">
        <g id="Group_15-2" data-name="Group 15" transform="translate(0 -98.666)">
          <path id="Fill_6_Copy-2" data-name="Fill 6 Copy" d="M22.946-11.473A11.473,11.473,0,0,0,11.473-22.946,11.472,11.472,0,0,0,0-11.473,11.473,11.473,0,0,0,11.473,0,11.473,11.473,0,0,0,22.946-11.473" transform="translate(372.961)" fill="#0072ce"/>
          <path id="Fill_6_Copy_6" data-name="Fill 6 Copy 6" d="M22.946-11.473A11.473,11.473,0,0,0,11.473-22.946,11.472,11.472,0,0,0,0-11.473,11.473,11.473,0,0,0,11.473,0,11.473,11.473,0,0,0,22.946-11.473" transform="translate(395.847 -99.814)" fill="#0072ce"/>
          <path id="Fill_6_Copy_7" data-name="Fill 6 Copy 7" d="M22.946-11.473A11.473,11.473,0,0,0,11.473-22.946,11.472,11.472,0,0,0,0-11.473,11.473,11.473,0,0,0,11.473,0,11.473,11.473,0,0,0,22.946-11.473" transform="translate(0.034 -99.814)" fill="#0072ce"/>
          <path id="Fill_6_Copy_5-2" data-name="Fill 6 Copy 5" d="M22.946-11.473A11.473,11.473,0,0,0,11.473-22.946,11.472,11.472,0,0,0,0-11.473,11.473,11.473,0,0,0,11.473,0,11.473,11.473,0,0,0,22.946-11.473" transform="translate(26.482)" fill="#0072ce"/>
        </g>
        <g id="Group_13-2" data-name="Group 13" transform="translate(99.908 -26.387)">
          <path id="Fill_6_Copy_2-2" data-name="Fill 6 Copy 2" d="M22.946-11.473A11.473,11.473,0,0,0,11.473-22.946,11.472,11.472,0,0,0,0-11.473,11.473,11.473,0,0,0,11.473,0,11.473,11.473,0,0,0,22.946-11.473" transform="translate(201.922)" fill="#0072ce"/>
          <path id="Fill_6_Copy_4-2" data-name="Fill 6 Copy 4" d="M22.946-11.473A11.473,11.473,0,0,0,11.473-22.946,11.472,11.472,0,0,0,0-11.473,11.473,11.473,0,0,0,11.473,0,11.473,11.473,0,0,0,22.946-11.473" fill="#0072ce"/>
        </g>
        <path id="Fill_6_Copy_3-2" data-name="Fill 6 Copy 3" d="M22.946-11.473A11.473,11.473,0,0,0,11.473-22.946,11.472,11.472,0,0,0,0-11.473,11.473,11.473,0,0,0,11.473,0,11.473,11.473,0,0,0,22.946-11.473" transform="translate(199.722)" fill="#0072ce"/>
      </g>
    </g>
    <g id="Group_2" data-name="Group 2" transform="translate(158.42 156.03)">
      <path id="Fill_32" data-name="Fill 32" d="M107.845,53.922A53.922,53.922,0,1,1,53.922,0a53.923,53.923,0,0,1,53.923,53.922" fill="#00b2a9"/>
      <g id="person" transform="translate(24 22)">
        <rect id="Rectangle" width="60.577" height="60.577" opacity="0"/>
        <path id="Path" d="M10.1,20.192A10.1,10.1,0,1,0,0,10.1,10.1,10.1,0,0,0,10.1,20.192Z" transform="translate(20.192 7.211)" fill="#fff"/>
        <path id="Path-2" data-name="Path" d="M33.482,20.192a2.55,2.55,0,0,0,2.576-2.524A17.851,17.851,0,0,0,18.029,0,17.851,17.851,0,0,0,0,17.668a2.55,2.55,0,0,0,2.576,2.524Z" transform="translate(12.981 33.173)" fill="#fff"/>
      </g>
    </g>
  </g>
</svg>
